<?xml version="1.0"?>
<svg width="16" height="16" xmlns="http://www.w3.org/2000/svg" xmlns:xlink="http://www.w3.org/1999/xlink">
 <defs>
  <symbol id="svg_1" viewBox="0 0 34 34" xmlns="http://www.w3.org/2000/svg">
   <path clip-rule="evenodd" d="m27.6,13.15l-2.64,0c-0.57,0 -1.12,-0.23 -1.52,-0.63l-6.31,-6.28c-1.22,-1.21 -3.18,-1.21 -4.4,0l-6.63,6.6c-1.23,1.22 -1.23,3.2 0,4.42l6.63,6.6c1.22,1.21 3.18,1.21 4.4,0l6.31,-6.27c0.4,-0.41 0.95,-0.63 1.52,-0.63l2.62,0c-0.94,6.03 -6.19,10.64 -12.51,10.64c-7,0 -12.67,-5.64 -12.67,-12.6c0,-6.96 5.67,-12.6 12.67,-12.6c6.36,0 11.63,4.67 12.53,10.75z" fill="#7396CD" fill-rule="evenodd" id="svg_3"/>
   <rect fill="#7396CD" height="7.3" width="7.3" id="svg_4" rx="0.86" transform="matrix(0.709001, 0.705207, -0.709011, 0.705217, 15.0547, 10.0)" />
  </symbol>
 </defs>
 <g class="layer" display="inline">
  <use id="svg_2" transform="matrix(1.17318 0 0 1.17318 0 0)" xlink:href="#svg_1"/>
 </g>
</svg>
